<svg width="63" height="50" viewBox="0 0 63 50" fill="none" xmlns="http://www.w3.org/2000/svg">
<path d="M41.875 26.0938H57.1522C56.6701 29.3039 55.5239 32.3783 53.7866 35.1204C52.0493 37.8626 49.7592 40.2123 47.0625 42.0194L42.4197 45.1319L45.2728 49.4375L49.9156 46.325C53.8237 43.7207 57.0284 40.1919 59.2455 36.0519C61.4626 31.9118 62.6234 27.2885 62.625 22.5922V5.34375C62.625 3.96794 62.0785 2.64848 61.1056 1.67564C60.1328 0.702789 58.8133 0.15625 57.4375 0.15625H41.875C40.4992 0.15625 39.1797 0.702789 38.2069 1.67564C37.234 2.64848 36.6875 3.96794 36.6875 5.34375V20.9062C36.6875 22.2821 37.234 23.6015 38.2069 24.5744C39.1797 25.5472 40.4992 26.0938 41.875 26.0938ZM5.5625 26.0938H20.8397C20.3576 29.3039 19.2114 32.3783 17.4741 35.1204C15.7368 37.8626 13.4467 40.2123 10.75 42.0194L6.10719 45.1319L8.93437 49.4375L13.6031 46.325C17.5112 43.7207 20.7159 40.1919 22.933 36.0519C25.1501 31.9118 26.3109 27.2885 26.3125 22.5922V5.34375C26.3125 3.96794 25.766 2.64848 24.7931 1.67564C23.8203 0.702789 22.5008 0.15625 21.125 0.15625H5.5625C4.18669 0.15625 2.86723 0.702789 1.89439 1.67564C0.921539 2.64848 0.375 3.96794 0.375 5.34375V20.9062C0.375 22.2821 0.921539 23.6015 1.89439 24.5744C2.86723 25.5472 4.18669 26.0938 5.5625 26.0938Z" fill="#CDA274"/>
</svg>
