<svg width="92" height="92" viewBox="0 0 92 92" fill="none" xmlns="http://www.w3.org/2000/svg">
<g clip-path="url(#clip0_361_105)">
<path d="M92 89.0322H89.0322V92H92V89.0322Z" fill="#CDA274"/>
<path d="M71.2258 14.8387V2.96774H47.4839V0H44.5161V2.96774H20.7742V35.0305L11.871 29.8907V29.6774H11.5037L11.1828 29.4919L11.0752 29.6774H0V50.4516C0 53.7254 2.66169 56.3871 5.93548 56.3871H20.7742V62.3226H33.8026L28.4606 89.0323H0V92H44.5161H47.4839H86.0645V89.0323H63.5394L58.1974 62.3226H71.2258V38.5806H83.0968V35.6129H80.5445L83.2303 24.8734L77.7289 17.9975C83.299 18.9731 87.5484 23.8328 87.5484 29.6774H90.5161C90.5161 24.8215 88.1605 20.5145 84.5417 17.8065H92V14.8387H71.2258ZM8.90323 50.4516C8.90323 52.0876 7.57145 53.4194 5.93548 53.4194C4.29952 53.4194 2.96774 52.0876 2.96774 50.4516V32.6452H8.90323V50.4516ZM19.8709 38.9794L22.8386 44.1173L13.2491 49.6559L19.1827 39.3764L19.8709 38.9794ZM11.871 34.2366L12.2698 33.5448L17.4077 36.5125L11.871 46.1057V34.2366ZM12.663 53.4194L22.9444 47.4839H23.7419V53.4194H12.663ZM44.5161 89.0323H31.4877L36.8297 62.3226H44.5161V89.0323ZM60.5123 89.0323H47.4839V62.3226H55.1703L60.5123 89.0323ZM68.1245 24.8734L70.8103 35.6129H68.2581V37.0968V38.5806V59.3548H23.7419V56.3871H26.7097V45.31L26.8933 45.2024L26.7097 44.8852V44.5161H26.4964L23.7419 39.7455V5.93548H68.2581V14.8387H59.3548V17.8065H66.8131C63.1944 20.5145 60.8387 24.8215 60.8387 29.6774H63.8065C63.8065 23.8328 68.0559 18.9731 73.626 17.9956L68.1245 24.8734ZM79.9955 25.5801L77.4877 35.6129H73.8671L71.3594 25.5782L74.1936 22.0355V28.1935H77.1613V22.0373L79.9955 25.5801Z" fill="#CDA274"/>
<path d="M32.6449 11.8708H29.6772V14.8386H32.6449V11.8708Z" fill="#CDA274"/>
<path d="M62.3223 50.4517H59.3545V53.4194H62.3223V50.4517Z" fill="#CDA274"/>
<path d="M59.3547 32.645C59.3547 25.2813 53.3636 19.2902 45.9999 19.2902C43.5997 19.2902 41.3498 19.9357 39.4004 21.0486L35.329 15.4507L32.9288 17.1961L37.0058 22.8014C34.3329 25.2442 32.645 28.7462 32.645 32.645C32.645 40.0088 38.6362 45.9999 45.9999 45.9999C48.4 45.9999 50.65 45.3544 52.5994 44.2415L56.6708 49.8394L59.0709 48.094L54.994 42.4887C57.6668 40.0459 59.3547 36.5439 59.3547 32.645ZM45.9999 43.0321C40.274 43.0321 35.6128 38.3709 35.6128 32.645C35.6128 29.7329 36.8221 27.0991 38.7604 25.2127L50.8429 41.8283C49.3942 42.5925 47.749 43.0321 45.9999 43.0321ZM41.1569 23.4636C42.6055 22.6975 44.2508 22.2579 45.9999 22.2579C51.7258 22.2579 56.387 26.9192 56.387 32.645C56.387 35.5571 55.1776 38.191 53.2393 40.0774L41.1569 23.4636Z" fill="#CDA274"/>
</g>
<defs>
<clipPath id="clip0_361_105">
<rect width="92" height="92" fill="white"/>
</clipPath>
</defs>
</svg>
