<svg width="93" height="93" viewBox="0 0 93 93" fill="none" xmlns="http://www.w3.org/2000/svg">
<circle cx="46.5" cy="46.5" r="46.5" fill="#F4F0EC"/>
<path d="M60.3333 53.56V57.56C60.3348 57.9313 60.2587 58.2989 60.11 58.6391C59.9612 58.9793 59.743 59.2848 59.4694 59.5358C59.1958 59.7868 58.8727 59.9779 58.521 60.0969C58.1692 60.2159 57.7964 60.2601 57.4266 60.2266C53.3237 59.7808 49.3826 58.3788 45.92 56.1333C42.6984 54.0862 39.9671 51.3549 37.92 48.1333C35.6666 44.6549 34.2643 40.6946 33.8266 36.5733C33.7933 36.2046 33.8371 35.833 33.9553 35.4821C34.0735 35.1313 34.2634 34.8089 34.513 34.5355C34.7626 34.262 35.0664 34.0436 35.405 33.894C35.7437 33.7444 36.1097 33.667 36.48 33.6666H40.48C41.127 33.6603 41.7543 33.8894 42.245 34.3113C42.7356 34.7333 43.0561 35.3192 43.1466 35.96C43.3154 37.2401 43.6286 38.4969 44.08 39.7066C44.2593 40.1839 44.2982 40.7025 44.1918 41.2011C44.0855 41.6998 43.8384 42.1574 43.48 42.52L41.7866 44.2133C43.6847 47.5514 46.4486 50.3152 49.7866 52.2133L51.48 50.52C51.8425 50.1615 52.3002 49.9144 52.7988 49.8081C53.2974 49.7018 53.8161 49.7406 54.2933 49.92C55.503 50.3714 56.7599 50.6845 58.04 50.8533C58.6876 50.9447 59.2792 51.2709 59.702 51.77C60.1248 52.269 60.3495 52.9061 60.3333 53.56Z" stroke="#CDA274" stroke-width="2" stroke-linecap="round" stroke-linejoin="round"/>
<path d="M49.7333 33.6667C52.451 33.9531 54.9895 35.1585 56.9291 37.0835C58.8687 39.0086 60.0931 41.538 60.3999 44.2534" stroke="#CDA274" stroke-width="2" stroke-linecap="round" stroke-linejoin="round"/>
<path d="M49.7333 39C51.0446 39.2586 52.248 39.9054 53.1871 40.8564C54.1263 41.8075 54.7579 43.0188 54.9999 44.3333" stroke="#CDA274" stroke-width="2" stroke-linecap="round" stroke-linejoin="round"/>
</svg>
